<svg version="1.2" xmlns="http://www.w3.org/2000/svg" viewBox="0 0 262 237" width="262" height="237">
	<style>
		.s0 { fill: #ffffff } 
	</style>
	<path class="s0" d="m34.12 2.52c-11.41 6.78-33.91 32.62-34.12 39.4v11.21c0 14.22 13.29 26.72 25.36 26.72 14.49 0 26.56-12.01 26.56-26.26 0 14.25 11.66 26.26 26.15 26.26 14.49 0 25.78-12.01 25.78-26.26 0 14.25 12.39 26.26 26.88 26.26h0.27c14.49 0 26.88-12.01 26.88-26.26 0 14.25 11.29 26.26 25.78 26.26 14.49 0 26.15-12.01 26.15-26.26 0 14.25 12.07 26.26 26.56 26.26 12.07 0 25.36-12.49 25.36-26.72v-11.21c-0.21-6.78-22.71-32.62-34.12-39.4-35.48-1.24-60.08-1.46-96.75-1.45-36.66 0-86.64 0.57-96.74 1.45zm69.54 70.63q-0.52 0.91-1.1 1.77-0.58 0.87-1.22 1.69-0.64 0.83-1.33 1.61-0.7 0.77-1.45 1.5c-5.47 5.35-12.96 8.66-21.23 8.66q-2.95 0-5.85-0.56-2.9-0.57-5.64-1.68-2.73-1.12-5.21-2.74-2.46-1.62-4.58-3.69c-1.98-1.94-3.48-4.01-4.86-6.43l-0.01 0.01c-1.38 2.42-3.3 4.49-5.28 6.43q-2.12 2.07-4.59 3.69-2.47 1.62-5.2 2.73-2.74 1.12-5.64 1.68-2.9 0.57-5.85 0.57c-1 0-2.04-0.28-2.87-0.57-1.17 12.13-1.66 23.73-1.83 32.18l-0.01 0.05c-0.02 4.29-0.04 7.82-0.06 12.72 0.22 25.45-2.52 82.49 11.22 96.5 21.3 4.97 60.48 7.23 99.79 7.25h0.01c39.31-0.02 78.49-2.28 99.79-7.25 13.74-14.01 11-71.05 11.22-96.5-0.02-4.9-0.04-8.43-0.06-12.73l-0.01-0.04c-0.17-8.46-0.66-20.05-1.83-32.18-0.83 0.29-1.87 0.56-2.87 0.56q-2.95 0.01-5.85-0.56-2.9-0.57-5.64-1.68-2.73-1.11-5.2-2.73-2.47-1.62-4.59-3.69c-1.98-1.94-3.9-4.01-5.28-6.44h-0.01c-1.38 2.42-2.88 4.49-4.86 6.43q-2.12 2.07-4.59 3.69-2.47 1.62-5.2 2.73-2.74 1.12-5.64 1.69-2.9 0.56-5.85 0.56c-8.27 0-15.76-3.32-21.23-8.67q-0.75-0.72-1.45-1.5-0.69-0.78-1.33-1.6-0.64-0.82-1.22-1.69-0.58-0.87-1.1-1.77-0.52 0.9-1.09 1.77-0.58 0.86-1.21 1.69-0.63 0.82-1.32 1.6-0.69 0.78-1.43 1.5-2.12 2.07-4.59 3.69-2.47 1.62-5.2 2.74-2.74 1.11-5.64 1.68-2.9 0.56-5.85 0.56-0.44 0-0.87-0.02h-0.01q-0.43 0.02-0.86 0.02-2.96 0-5.86-0.56-2.9-0.57-5.63-1.68-2.74-1.12-5.21-2.74-2.47-1.62-4.58-3.68-0.74-0.73-1.43-1.51-0.69-0.78-1.33-1.6-0.63-0.82-1.21-1.69-0.57-0.87-1.09-1.77zm-21.85 28.26v0.01h0.01c8.66 0.02 16.35 0 25.87 10.4 7.5-0.79 15.33-1.18 23.17-1.17h0.01c7.84-0.01 15.67 0.38 23.17 1.17 9.52-10.4 17.21-10.38 25.87-10.4h0.01v-0.01c4.09 0 20.44 0 31.84 32.01l12.24 43.91c9.07 32.66-2.91 33.46-17.84 33.49-22.16-0.83-34.42-16.91-34.42-33-12.26 2.01-26.57 3.02-40.87 3.02h-0.01c-14.31 0-28.61-1.01-40.87-3.02 0 16.09-12.27 32.17-34.42 33-14.94-0.03-26.91-0.83-17.84-33.49l12.24-43.91c11.4-32.01 27.75-32.01 31.84-32.01zm49.05 25.15v0.01c-0.02 0.02-23.32 21.42-27.51 29.03l15.26-0.61v13.3c0 0.63 6.12 0.37 12.25 0.09h0.01c6.12 0.28 12.25 0.54 12.25-0.09v-13.3l15.26 0.61c-4.19-7.61-27.51-29.03-27.51-29.03v-0.01q0 0.01-0.01 0z"/>
</svg>